<?xml version="1.0" encoding="utf-8"?>
<!-- Generator: Adobe Illustrator 21.0.0, SVG Export Plug-In . SVG Version: 6.00 Build 0)  -->
<svg version="1.1" id="Layer_1" xmlns="http://www.w3.org/2000/svg" xmlns:xlink="http://www.w3.org/1999/xlink" x="0px" y="0px"
	viewBox="0 0 20 20" xml:space="preserve">
<style type="text/css">
	.st0{fill:#333333;}
	.st1{fill:#3E54FF;}
</style>
<title>dd</title>

	<g>

	<path class="st1" d="M19.4,14.8l-3.7-6.7C15,7,13.4,7,12.8,8.2l-2.2,4c-0.3,0.5-0.3,1.1,0,1.6l1.5,2.7c0.3,0.5,0.8,0.8,1.4,0.8h4.4
		C19.2,17.2,20,15.9,19.4,14.8z"/>
	<path class="st1" d="M10.7,15.5L10.7,15.5c-0.4-0.8-1.6-0.8-2.1,0l0,0c-0.4,0.8,0.1,1.7,1,1.7h0C10.6,17.2,11.2,16.3,10.7,15.5z"/>
	<polygon class="st1" points="9.5,0.8 0.4,17.2 6.7,17.2 12.7,6.5 	"/>
</g>
</svg>
